<svg width="512" height="512" viewBox="0 0 512 512" fill="none" xmlns="http://www.w3.org/2000/svg">
<path d="M447.229 240.578C434.116 240.578 421.948 230.258 419.455 217.384C406.518 150.594 354.401 103.95 287.982 89.9901C275.318 87.3283 265.253 76.7794 265.253 63.8383V30.8434C265.253 13.809 279.062 0 296.096 0H481.157C498.191 0 512 13.809 512 30.8434V209.735C512 226.769 499.73 240.578 482.696 240.578H447.229Z" fill="#1F4545"/>
<path d="M447.229 240.578C434.116 240.578 421.948 230.258 419.455 217.384C406.518 150.594 354.401 103.95 287.982 89.9901C275.318 87.3283 265.253 76.7794 265.253 63.8383V30.8434C265.253 13.809 279.062 0 296.096 0H481.157C498.191 0 512 13.809 512 30.8434V209.735C512 226.769 499.73 240.578 482.696 240.578H447.229Z" fill="#1F4545"/>
<path d="M30.8434 0C13.8091 0 0 13.8091 0 30.8434V215.904C0 232.938 13.8091 246.747 30.8434 246.747H79.7344C81.8601 246.747 83.6101 245.074 83.7713 242.954C90.1816 158.665 158.19 91.5936 242.881 86.6533C245.031 86.5279 246.747 84.7655 246.747 82.6119V30.8434C246.747 13.8091 232.938 0 215.904 0H30.8434Z" fill="#28DDB1"/>
<path d="M79.7344 265.253C81.8601 265.253 83.6101 266.926 83.7713 269.046C90.1816 353.335 158.19 420.406 242.881 425.347C245.031 425.472 246.747 427.235 246.747 429.388V481.157C246.747 498.191 232.938 512 215.904 512H30.8434C13.8091 512 0 498.191 0 481.157V296.096C0 279.062 13.8091 265.253 30.8434 265.253H79.7344Z" fill="#A62359"/>
<path d="M265.253 448.162C265.253 435.221 275.318 424.672 287.983 422.01C337.919 411.514 379.771 379.056 402.966 335.207C407.3 327.013 400.981 320.771 391.711 320.771H289.928C276.3 320.771 265.253 306.64 265.253 293.012V289.928C265.253 276.3 276.286 265.253 289.913 265.253C328.302 265.253 400.239 265.253 422.306 265.253H481.157C498.191 265.253 512 279.062 512 296.096V481.157C512 498.191 498.191 512 481.157 512H296.096C279.062 512 265.253 498.191 265.253 481.157V448.162Z" fill="#FF6433"/>
<path d="M265.253 283.759C265.253 270.132 276.3 259.084 289.928 259.084H482.955C495.275 259.462 509.668 269.591 512 286.843V302.265C512 312.486 503.715 320.771 493.494 320.771H289.928C276.3 320.771 265.253 309.724 265.253 296.096V283.759Z" fill="#FF6433"/>
</svg>
